<svg width="15" height="16" viewBox="0 0 15 16" fill="none" xmlns="http://www.w3.org/2000/svg">
<path d="M12.6901 0.623668C12.8922 0.674627 13.0437 0.755561 13.4754 1.03433C14.1367 1.46298 14.2239 1.5649 14.2285 1.89163C14.2285 2.06549 14.2055 2.16441 14.1413 2.25134C14.0816 2.33227 12.6121 3.31547 9.57207 5.30285L5.09014 8.23146L9.57666 11.1631C13.0667 13.4412 14.0861 14.1217 14.155 14.2266C14.2193 14.3165 14.2515 14.4274 14.2515 14.5563C14.2515 14.8651 14.1183 15.0149 13.48 15.4286C13.03 15.7194 12.8968 15.7853 12.6764 15.8393C12.3411 15.9232 12.0748 15.9232 11.7396 15.8423C11.4824 15.7823 11.2436 15.6294 6.09122 12.2662C0.135212 8.38134 0.47503 8.62714 0.47503 8.23146C0.47503 7.83579 0.135212 8.08159 6.09122 4.19675C11.2482 0.830499 11.4824 0.680622 11.7396 0.620671C12.0702 0.542734 12.3641 0.542734 12.6901 0.623668Z" fill="white"/>
</svg>
